<?xml version="1.0" encoding="utf-8"?>
<svg xmlns="http://www.w3.org/2000/svg">
<symbol id="left" viewBox="0 0 1024 1024"><defs><style type="text/css"/></defs><path d="M713.88672 965.49376l-439.94624-435.42016a25.25696 25.25696 0 0 1 0-35.98336l439.94624-435.42528a25.89696 25.89696 0 0 1 36.352 0 25.2672 25.2672 0 0 1 0 35.98848l-421.74976 417.42848 421.74976 417.42848a25.26208 25.26208 0 0 1 0 35.98336 25.89696 25.89696 0 0 1-36.352 0z" p-id="1328"/>
</symbol>
<symbol id="money" viewBox="0 0 1024 1024"><defs><style type="text/css"/></defs><path d="M851.2 57.6 608 465.066667l211.2 0 0 72.533333L561.066667 537.6l0 115.2 260.266667 0L821.333333 725.333333 561.066667 725.333333l0 241.066667-96 0L465.066667 725.333333 206.933333 725.333333l0-72.533333 258.133333 0 0-115.2L206.933333 537.6l0-72.533333 211.2 0L172.8 57.6l106.666667 0 234.666667 401.066667L746.666667 57.6 851.2 57.6z" p-id="4697"/>
</symbol>
<symbol id="right" viewBox="0 0 1024 1024"><defs><style type="text/css"/></defs><path d="M310.11328 58.50624l439.94624 435.42016a25.25696 25.25696 0 0 1 0 35.98336l-439.94624 435.42528a25.89696 25.89696 0 0 1-36.352 0 25.2672 25.2672 0 0 1 0-35.98848l421.74976-417.42848-421.74976-417.42848a25.26208 25.26208 0 0 1 0-35.98336 25.89696 25.89696 0 0 1 36.352 0z" p-id="1205"/>
</symbol>
<symbol id="statistics" viewBox="0 0 1024 1024"><defs><style type="text/css"/></defs><path d="M917 872H107c-24.9 0-45 20.1-45 45s20.1 45 45 45h810c24.9 0 45-20.1 45-45s-20.1-45-45-45zM182 782c66.3 0 120-53.7 120-120V482c0-66.3-53.7-120-120-120S62 415.7 62 482v180c0 66.3 53.7 120 120 120z m-30-300c0-16.6 13.4-30 30-30s30 13.4 30 30v180c0 16.6-13.4 30-30 30s-30-13.4-30-30V482zM512 782c66.3 0 120-53.7 120-120V362c0-66.3-53.7-120-120-120s-120 53.7-120 120v300c0 66.3 53.7 120 120 120z m-30-420c0-16.6 13.4-30 30-30s30 13.4 30 30v300c0 16.6-13.4 30-30 30s-30-13.4-30-30V362zM842 62c-66.3 0-120 53.7-120 120v480c0 66.3 53.7 120 120 120s120-53.7 120-120V182c0-66.3-53.7-120-120-120z m30 600c0 16.6-13.4 30-30 30s-30-13.4-30-30V182c0-16.6 13.4-30 30-30s30 13.4 30 30v480z" fill="" p-id="3937"/>
</symbol>
<symbol id="tags" viewBox="0 0 1024 1024"><defs><style type="text/css"/></defs><path d="M788.48 629.418667c0-17.066667-5.802667-31.744-17.749333-44.714667L421.205333 235.861333c-12.288-12.288-29.354667-22.869333-49.834667-31.744-21.162667-8.874667-39.936-12.970667-57.002667-12.970667L110.933333 191.146667c-17.066667 0-31.744 6.485333-44.032 18.773333-12.288 12.288-18.773333 26.965333-18.773333 44.032l0 202.752c0 17.066667 4.096 36.522667 12.970667 57.002667 8.874667 21.162667 18.773333 37.546667 31.744 49.834667l349.525333 349.525333c12.288 12.288 26.965333 17.749333 44.032 17.749333 17.066667 0 31.744-5.802667 44.714667-17.749333l239.616-239.616C781.994667 661.162667 788.48 646.485333 788.48 629.418667L788.48 629.418667 788.48 629.418667zM248.490667 392.192c-12.288 12.288-26.965333 18.090667-44.032 18.090667-17.066667 0-31.744-5.802667-44.032-18.090667-12.288-12.288-18.090667-26.965333-18.090667-44.032 0-17.066667 5.802667-31.744 18.090667-44.032 12.288-12.288 26.965333-18.090667 44.032-18.090667 17.066667 0 31.744 5.802667 44.032 18.090667C260.778667 316.416 266.24 331.093333 266.24 348.16 267.264 365.568 260.778667 379.904 248.490667 392.192L248.490667 392.192 248.490667 392.192zM958.122667 584.362667 608.597333 235.861333c-12.288-12.288-29.354667-22.869333-49.834667-31.744C537.6 195.242667 518.826667 191.146667 501.76 191.146667l-109.909333 0c17.066667 0 36.522667 4.096 57.002667 12.970667 21.162667 8.874667 37.546667 18.773333 49.834667 31.744l349.525333 348.501333c12.288 12.970667 18.090667 27.648 18.090667 44.714667s-5.802667 31.744-18.090667 44.032l-229.034667 229.717333c9.898667 9.898667 18.773333 17.066667 25.941333 21.845333 7.168 4.778667 17.066667 6.485333 28.672 6.485333 17.066667 0 31.744-5.802667 44.714667-18.090667l239.616-240.298667c12.288-12.288 17.749333-26.965333 17.749333-44.032S970.069333 597.674667 958.122667 584.362667L958.122667 584.362667 958.122667 584.362667zM958.122667 584.362667" p-id="2400"/>
</symbol></svg>